<?xml version="1.0" standalone="no"?>
<!DOCTYPE svg PUBLIC "-//W3C//DTD SVG 20010904//EN"
 "http://www.w3.org/TR/2001/REC-SVG-20010904/DTD/svg10.dtd">
<svg version="1.0" xmlns="http://www.w3.org/2000/svg"
 width="525.000000pt" height="525.000000pt" viewBox="0 0 525.000000 525.000000"
 preserveAspectRatio="xMidYMid meet">
<metadata>
Created by potrace 1.14, written by Peter Selinger 2001-2017
</metadata>
<g transform="translate(0.000000,525.000000) scale(0.100000,-0.100000)"
fill="#000000" stroke="none">
<path d="M1815 5104 c-11 -2 -58 -12 -105 -21 -46 -8 -96 -20 -110 -25 -14 -6
-34 -14 -45 -18 -117 -46 -178 -86 -242 -157 -79 -87 -107 -135 -100 -172 8
-38 -3 -82 -22 -89 -58 -21 -112 -68 -166 -143 -48 -68 -63 -98 -83 -173 -21
-80 -23 -105 -18 -211 3 -66 14 -187 26 -270 44 -327 84 -468 156 -556 33 -41
42 -61 47 -103 3 -29 18 -79 35 -112 16 -32 45 -90 64 -129 19 -38 39 -81 43
-95 4 -14 13 -32 20 -40 14 -17 95 -190 95 -204 0 -3 16 -31 36 -63 27 -41 41
-78 50 -132 18 -101 28 -188 27 -231 0 -19 -2 -149 -3 -288 l-2 -253 -52 -33
c-29 -18 -72 -43 -97 -54 -24 -12 -66 -34 -94 -51 -27 -16 -70 -40 -95 -53
-25 -14 -72 -45 -105 -70 -33 -25 -80 -57 -105 -72 -97 -59 -263 -189 -333
-261 -78 -79 -225 -356 -269 -505 -12 -40 -40 -111 -76 -190 -76 -168 -121
-330 -90 -330 9 0 22 28 38 83 31 108 198 534 261 666 48 101 154 271 169 271
4 0 42 31 85 69 139 124 739 510 760 489 2 -2 -2 -42 -10 -88 -46 -273 -49
-314 -31 -438 29 -188 83 -308 204 -447 38 -44 77 -95 86 -113 20 -38 35 -42
28 -7 -5 30 21 35 37 8 9 -15 12 -16 20 -4 8 12 12 13 25 1 22 -17 29 -8 18
21 -9 23 -5 89 5 89 3 0 21 -9 39 -21 40 -25 45 -9 8 28 -17 16 -22 29 -16 35
7 7 20 -2 39 -23 63 -75 251 -245 259 -236 3 3 -13 31 -35 61 -39 53 -40 56
-19 56 33 -1 60 -24 52 -46 -4 -14 -3 -15 4 -6 7 10 12 8 24 -10 15 -23 98
-195 98 -203 0 -3 -7 -2 -15 1 -30 12 -16 -51 47 -209 6 -15 17 -27 24 -27 16
0 19 41 5 55 -10 11 -42 117 -37 122 2 2 19 -36 38 -84 l35 -88 222 -3 c139
-1 221 1 221 7 0 6 -54 118 -120 249 -111 221 -190 399 -190 429 0 7 6 10 14
7 8 -3 23 -1 32 4 15 9 14 11 -9 27 -14 9 -38 38 -54 63 -48 82 -233 441 -233
453 0 4 17 3 38 -3 102 -29 368 24 523 102 l39 20 -6 -132 c-5 -87 -3 -152 5
-187 13 -62 84 -248 88 -234 2 6 -12 72 -32 149 -36 140 -45 221 -31 282 5 22
13 32 24 30 12 -2 19 8 26 34 16 64 23 43 22 -64 -1 -87 2 -109 20 -143 12
-22 30 -59 39 -82 10 -24 24 -43 31 -43 7 0 25 -27 40 -61 15 -33 41 -71 58
-84 l31 -24 0 -213 c0 -117 -4 -297 -8 -400 l-8 -188 200 0 c111 0 202 1 202
3 1 1 5 132 9 292 5 160 12 355 16 433 l7 144 30 -6 c29 -6 29 -6 13 19 -19
29 -21 59 -3 52 6 -3 31 -13 55 -22 53 -21 62 -14 33 25 -19 26 -19 30 -5 30
10 0 26 -7 36 -17 17 -15 18 -15 18 4 0 11 -9 28 -21 39 -12 10 -32 40 -45 66
-13 25 -34 62 -48 82 -32 48 -59 164 -54 231 3 34 17 77 39 120 34 67 51 90
43 57 -8 -27 58 -160 114 -233 27 -36 59 -86 71 -112 21 -45 37 -64 48 -54 3
4 1 20 -5 36 -13 37 -2 40 35 11 27 -21 63 -27 63 -10 0 6 -4 10 -9 10 -5 0
-25 23 -45 50 -92 128 -129 259 -104 372 13 64 22 72 32 30 4 -15 11 -43 16
-62 8 -33 5 183 -5 335 -21 312 -28 389 -41 444 -8 35 -12 66 -10 68 2 3 21
-11 43 -29 79 -70 119 -96 171 -109 47 -12 53 -16 63 -48 39 -134 8 -261 -110
-456 -47 -78 -52 -102 -20 -85 11 6 23 19 27 28 4 9 29 56 55 105 59 106 107
238 107 292 0 38 -9 85 -24 132 -6 20 -4 22 34 21 27 0 40 -5 40 -14 0 -16 12
-18 26 -4 6 6 90 11 210 12 155 1 211 -3 254 -15 30 -9 75 -21 99 -27 23 -6
49 -14 57 -17 8 -3 14 1 14 11 0 15 3 15 30 1 17 -9 74 -27 127 -40 53 -14
104 -27 115 -30 14 -5 18 -1 18 19 0 14 -1 26 -2 27 -2 0 -23 3 -48 6 -25 3
-61 12 -80 20 -19 9 -51 19 -70 24 -19 4 -58 14 -86 22 -28 8 -131 20 -230 26
-98 6 -205 16 -236 22 -40 7 -64 7 -77 -1 -28 -14 -255 -2 -309 17 -23 8 -72
39 -108 69 -36 29 -75 56 -87 60 -28 9 -37 21 -89 123 -24 46 -58 98 -75 116
-18 18 -33 35 -33 40 0 4 -11 16 -25 27 -14 11 -25 27 -25 37 0 10 -11 23 -24
29 -22 10 -129 105 -188 167 -51 54 -98 130 -105 169 -3 21 0 111 7 199 22
260 2 418 -73 572 -13 28 -27 71 -31 96 -9 60 -110 258 -173 339 -83 107 -93
124 -110 180 -29 100 -74 179 -146 256 -38 41 -74 74 -79 74 -6 0 -29 13 -53
29 -56 38 -184 94 -265 116 -36 9 -76 21 -90 26 -61 20 -158 31 -325 34 -99 2
-189 2 -200 -1z m377 -456 c23 -13 47 -29 51 -35 4 -7 25 -13 45 -13 28 0 40
-5 47 -21 11 -23 58 -49 178 -98 15 -6 26 -15 23 -19 -3 -5 34 -47 82 -93 89
-87 95 -96 191 -299 22 -47 70 -139 106 -205 77 -138 99 -188 119 -265 8 -30
24 -91 36 -135 12 -44 26 -95 30 -114 5 -19 6 -133 4 -253 -5 -211 -6 -222
-40 -340 -18 -67 -34 -126 -34 -131 0 -19 -72 -163 -108 -216 -21 -31 -69
-116 -107 -188 -74 -143 -105 -177 -209 -228 -120 -58 -277 -72 -388 -34 -58
19 -306 180 -453 293 -97 75 -234 216 -282 289 -70 108 -213 426 -213 475 0
31 -32 166 -42 179 -5 7 -7 26 -3 43 4 20 1 43 -8 63 -20 45 -29 117 -13 111
7 -3 39 16 71 41 67 52 139 88 209 106 46 11 50 11 124 -27 l77 -39 -65 -7
c-119 -12 -193 -45 -243 -111 -30 -39 -33 -53 -14 -60 9 -3 9 -9 -1 -26 -19
-33 -4 -46 23 -21 21 20 27 21 59 10 20 -6 38 -15 41 -20 2 -4 34 -1 70 6 70
15 151 56 205 104 l34 30 -23 24 c-25 27 -15 42 24 32 16 -4 31 -24 51 -66 29
-63 60 -83 48 -32 -33 148 -65 223 -100 236 -11 4 -14 13 -10 30 9 38 -16 56
-77 56 -125 -1 -253 -30 -364 -82 -55 -26 -139 -106 -146 -139 -3 -13 -5 10
-5 51 0 41 -6 137 -13 213 -11 114 -11 153 0 230 8 50 14 106 15 124 0 17 3
30 5 27 5 -5 51 106 51 123 0 60 172 252 248 277 15 5 32 15 37 22 6 8 31 16
56 18 25 2 63 12 84 20 41 18 118 16 153 -3 28 -15 35 -14 29 4 -4 8 -2 17 3
20 11 7 52 -44 44 -56 -6 -11 70 -85 96 -92 28 -7 26 -1 -23 53 -39 44 -67
103 -67 143 0 16 42 32 105 41 59 8 134 -3 177 -26z m64 -3 c16 -12 16 -14 3
-15 -9 0 -22 7 -29 15 -16 19 0 19 26 0z m958 -665 c61 -23 94 -120 117 -345
10 -103 10 -130 -4 -195 -8 -41 -19 -103 -23 -137 -3 -35 -10 -63 -15 -63 -5
0 -7 -17 -6 -37 2 -33 -1 -38 -22 -41 -13 -2 -27 0 -32 5 -5 5 -18 64 -29 131
-19 116 -19 123 -2 143 9 11 29 27 44 35 22 12 28 24 38 86 8 46 10 100 5 148
-4 41 -8 95 -10 120 -3 54 -16 89 -43 113 -20 18 -21 17 -63 -48 -35 -52 -45
-62 -51 -48 -15 38 -8 82 18 112 28 33 39 36 78 21z m-1 -168 c24 -26 38 -71
42 -129 4 -61 -7 -67 -51 -29 -23 19 -28 30 -26 65 3 38 -11 56 -21 29 -2 -7
-8 -1 -12 14 -14 54 33 89 68 50z m-63 -189 c0 -13 7 -37 15 -52 10 -20 11
-37 5 -57 -8 -28 -8 -28 -9 -4 -1 14 -10 59 -21 100 -14 57 -16 70 -4 56 7
-11 14 -30 14 -43z m-1412 -206 c9 -10 7 -19 -4 -35 -16 -24 -44 -30 -44 -9 0
6 -3 22 -6 35 -5 18 -2 22 19 22 13 0 29 -6 35 -13z m-170 -44 c-2 -10 -10
-18 -18 -18 -8 0 -16 8 -18 18 -2 12 3 17 18 17 15 0 20 -5 18 -17z m-66 -33
l17 -40 -25 0 c-38 0 -64 17 -57 38 19 53 43 54 65 2z m1616 -1075 c22 -83 18
-110 -71 -495 -23 -97 -46 -169 -71 -217 -20 -39 -36 -85 -36 -102 0 -25 -8
-36 -39 -56 -80 -54 -240 -103 -362 -111 -92 -7 -163 1 -153 17 3 5 -6 19 -20
30 -26 20 -66 89 -81 139 -12 39 -78 150 -90 150 -5 0 -22 22 -36 48 -14 26
-44 80 -67 119 -71 123 -54 157 44 83 59 -44 113 -70 184 -88 143 -35 249 -18
365 59 99 67 265 249 368 407 23 34 44 62 47 62 3 0 11 -20 18 -45z m29 -1075
c14 -58 33 -143 43 -190 9 -47 21 -94 25 -104 6 -13 5 -17 -3 -12 -6 3 -22 32
-37 63 -14 32 -32 65 -40 73 -22 24 -47 154 -48 250 -2 100 13 140 26 70 5
-25 20 -92 34 -150z m-1071 -135 c13 -33 19 -74 9 -63 -7 7 -34 98 -29 98 3 0
12 -16 20 -35z m1 -157 c-3 -8 -6 -5 -6 6 -1 11 2 17 5 13 3 -3 4 -12 1 -19z
m-322 -309 c9 -17 14 -33 11 -36 -3 -3 -10 7 -16 22 -6 15 -13 32 -16 36 -3 5
-3 9 0 9 3 0 13 -14 21 -31z"/>
<path d="M2495 4006 c-102 -29 -320 -129 -385 -177 -56 -42 -49 -77 21 -108
30 -13 47 -26 43 -32 -6 -11 12 -29 29 -29 4 0 7 12 7 28 0 54 63 129 135 161
95 42 154 53 292 55 147 3 170 11 137 47 -53 58 -179 83 -279 55z"/>
<path d="M2474 3799 c-62 -12 -165 -62 -198 -98 -35 -37 -29 -51 11 -24 54 38
58 36 18 -8 -21 -24 -45 -50 -52 -57 -7 -7 -13 -26 -13 -42 l0 -29 108 5 c154
7 214 27 280 92 29 28 59 52 67 52 44 0 -6 43 -77 66 l-43 14 48 -6 c55 -7 65
9 15 24 -50 15 -119 20 -164 11z m144 -91 c19 -16 15 -27 -22 -64 -39 -39 -63
-46 -46 -13 11 20 9 44 -6 84 -6 15 -2 16 27 10 19 -4 40 -12 47 -17z m-128
-32 c0 -3 -4 -8 -10 -11 -5 -3 -10 -1 -10 4 0 6 5 11 10 11 6 0 10 -2 10 -4z
m-130 -35 c0 -10 9 -30 21 -45 l20 -26 -65 0 c-36 0 -66 4 -66 8 0 5 16 27 36
50 36 42 54 46 54 13z"/>
<path d="M2595 3578 c-16 -6 -43 -22 -58 -37 -23 -21 -45 -28 -115 -38 l-87
-12 85 3 c94 3 171 29 211 72 25 26 15 30 -36 12z"/>
<path d="M1707 3291 c-42 -36 -176 -90 -225 -91 -15 -1 -15 -2 1 -11 46 -27
191 27 255 94 47 49 23 56 -31 8z"/>
<path d="M2210 3279 c0 -5 5 -7 10 -4 11 7 11 -9 0 -45 -8 -24 -8 -24 -9 -2
-1 15 -7 22 -20 22 -10 0 -22 7 -25 16 -4 9 -9 14 -13 11 -3 -4 8 -28 24 -54
54 -85 50 -149 -10 -194 -23 -17 -45 -24 -79 -24 -85 0 -144 82 -157 218 -1 4
-8 7 -17 7 -12 0 -15 -6 -10 -25 9 -35 -8 -92 -44 -144 -22 -32 -30 -56 -30
-88 0 -27 -4 -42 -10 -38 -5 3 -10 -3 -10 -15 0 -12 4 -19 9 -15 5 3 21 -6 35
-20 29 -29 79 -34 102 -10 20 19 77 19 145 -1 30 -9 55 -17 57 -19 1 -1 -2
-14 -7 -29 -13 -32 -5 -56 19 -56 25 0 34 17 32 57 -2 26 6 42 40 79 48 53
108 94 136 94 32 0 62 42 62 86 0 71 -46 118 -148 149 -12 3 -30 17 -38 31
-16 24 -44 33 -44 13z m145 -116 c37 -38 41 -49 26 -72 -7 -10 -21 -12 -56 -8
-26 4 -51 9 -56 13 -15 9 -10 71 7 88 23 24 39 20 79 -21z m-425 -113 c26 -26
25 -32 -6 -80 -43 -64 -66 -49 -60 38 3 60 31 77 66 42z"/>
<path d="M2707 2833 c-7 -13 5 -133 13 -133 12 0 30 49 30 83 0 41 -29 74 -43
50z"/>
<path d="M2630 2780 c-8 -5 -90 -10 -182 -10 l-167 0 -35 -31 c-36 -31 -42
-32 -116 -23 l-45 6 -79 -79 c-59 -59 -89 -81 -120 -88 -43 -11 -59 -37 -36
-59 9 -8 16 -6 27 12 21 30 62 29 109 -3 49 -34 105 -47 189 -47 150 1 292 74
400 207 31 37 67 77 81 87 13 11 24 24 24 29 0 12 -31 11 -50 -1z m-250 -177
c0 -5 -19 -20 -43 -34 -31 -20 -61 -28 -115 -33 -76 -7 -94 7 -22 17 22 3 48
11 57 19 25 21 123 46 123 31z"/>
<path d="M4267 2223 c-4 -3 -7 -11 -7 -17 0 -6 5 -5 12 2 6 6 9 14 7 17 -3 3
-9 2 -12 -2z"/>
<path d="M630 952 c0 -5 9 -17 20 -27 38 -34 147 -231 282 -505 74 -151 143
-297 153 -323 18 -47 31 -64 42 -54 11 12 -59 170 -160 362 -15 28 -56 114
-91 192 -84 184 -198 363 -232 363 -8 0 -14 -4 -14 -8z"/>
<path d="M2718 683 c7 -3 16 -2 19 1 4 3 -2 6 -13 5 -11 0 -14 -3 -6 -6z"/>
<path d="M5000 664 c0 -65 101 -311 155 -379 31 -37 46 -24 21 18 -50 86 -117
230 -141 305 -15 45 -28 82 -31 82 -2 0 -4 -12 -4 -26z"/>
<path d="M4520 644 c0 -8 10 -41 99 -314 38 -117 61 -205 75 -292 5 -28 12
-38 25 -38 17 0 17 4 -1 97 -10 53 -16 103 -14 109 3 7 -4 36 -15 66 -11 29
-29 85 -40 123 -30 105 -95 245 -118 253 -6 2 -11 0 -11 -4z"/>
<path d="M1153 228 c1 -191 3 -228 15 -228 13 0 14 28 9 188 -10 288 -26 315
-24 40z"/>
<path d="M5220 206 c0 -2 7 -9 15 -16 12 -10 15 -10 15 4 0 9 -7 16 -15 16 -8
0 -15 -2 -15 -4z"/>
</g>
</svg>
